<?xml version="1.0" encoding="UTF-8" standalone="no"?>
<!DOCTYPE svg PUBLIC "-//W3C//DTD SVG 1.1//EN" "http://www.w3.org/Graphics/SVG/1.1/DTD/svg11.dtd">
<svg width="100%" height="100%" viewBox="0 0 1000 500" version="1.1" xmlns="http://www.w3.org/2000/svg" xmlns:xlink="http://www.w3.org/1999/xlink" xml:space="preserve" xmlns:serif="http://www.serif.com/" style="fill-rule:evenodd;clip-rule:evenodd;stroke-linejoin:round;stroke-miterlimit:2;">
    <g id="Logo" transform="matrix(0.48675,0,0,0.48675,3.312613,134.049918)">
        <g transform="matrix(0.382479,-0.382479,0.05665,0.05665,9.099314,186.19691)">
            <g id="Pen">
                <path d="M194.542,4824.003L194.542,324.875C194.764,257.282 202.961,202.868 213.025,202.868L213.025,120.089C213.025,85.644 217.167,57.679 222.269,57.679L240.756,57.679C245.858,57.679 250,85.644 250,120.089L250,202.868C260.203,202.868 268.487,258.798 268.487,327.688L268.487,4821.19C268.487,4833.242 268.234,4844.898 267.761,4855.927C265.53,4907.938 258.418,4946.01 250,4946.01L213.025,4946.01C204.607,4946.01 197.495,4907.938 195.264,4855.927C194.828,4845.758 194.579,4835.057 194.542,4824.003ZM203.941,4996.639C222.13,5020.989 240.895,5020.989 259.084,4996.639L231.513,5409.239L203.941,4996.639Z" style="fill:rgb(61,0,255);"/>
            </g>
        </g>
        <path d="M358.967,397.454C349.463,401.714 338.93,404.083 327.848,404.083L172.152,404.083C135.184,404.083 104.327,377.714 97.38,342.774C110.403,341.917 120.716,331.068 120.716,317.829C120.716,304.098 109.622,292.938 95.917,292.83L95.917,272.828C109.622,272.72 120.716,261.56 120.716,247.829C120.716,234.098 109.622,222.938 95.917,222.83L95.917,202.828C109.622,202.72 120.716,191.56 120.716,177.829C120.716,165.226 111.37,154.788 99.236,153.075C100.401,149.269 101.855,145.589 103.574,142.061L358.967,397.454Z" style="fill:rgb(61,0,255);"/>
        <path d="M143.293,104.803C152.197,101.154 161.941,99.143 172.152,99.143L327.848,99.143C369.924,99.143 404.083,133.302 404.083,175.378L404.083,327.848C404.083,338.929 401.714,349.461 397.455,358.964L143.293,104.803Z" style="fill:rgb(61,0,255);"/>
        <path d="M358.598,386.878L356.789,385.07C357.429,385.682 358.131,386.193 358.874,386.602L358.598,386.878Z" style="fill:rgb(61,0,255);"/>
        <g transform="matrix(-0.138018,0.138018,0.749884,0.749884,86.219938,55.697881)">
            <path d="M213.025,402.434L213.038,402.434L213.025,402.439L213.025,402.434Z" style="fill:rgb(61,0,255);"/>
        </g>
    </g>
    <g transform="matrix(1,0,0,1,29.247486,27.928846)">
        <g transform="matrix(141.666667,0,0,141.666667,937.598217,273.706897)">
        </g>
        <text x="208.513px" y="273.707px" style="font-family:'SegoeUI', 'Segoe UI', sans-serif;font-size:141.667px;fill:url(#_Linear1);">FocusNote<tspan x="877.487px " y="273.707px ">s</tspan></text>
    </g>
    <defs>
        <linearGradient id="_Linear1" x1="0" y1="0" x2="1" y2="0" gradientUnits="userSpaceOnUse" gradientTransform="matrix(375.952148,100,-100,375.952148,215.397697,197.303088)"><stop offset="0" style="stop-color:rgb(61,0,255);stop-opacity:1"/><stop offset="1" style="stop-color:rgb(101,203,255);stop-opacity:1"/></linearGradient>
    </defs>
</svg>
