<?xml version="1.0" encoding="UTF-8" standalone="no"?>
<!DOCTYPE svg PUBLIC "-//W3C//DTD SVG 1.1//EN" "http://www.w3.org/Graphics/SVG/1.1/DTD/svg11.dtd">
<svg width="100%" height="100%" viewBox="0 0 500 500" version="1.1" xmlns="http://www.w3.org/2000/svg" xmlns:xlink="http://www.w3.org/1999/xlink" xml:space="preserve" xmlns:serif="http://www.serif.com/" style="fill-rule:evenodd;clip-rule:evenodd;stroke-linejoin:round;stroke-miterlimit:2;">
    <g id="Logo">
        <g transform="matrix(0.382479,-0.382479,0.05665,0.05665,9.099314,186.19691)">
            <g id="Pen">
                <path d="M194.542,4824.003L194.542,324.875C194.764,257.282 202.961,202.868 213.025,202.868L213.025,120.089C213.025,85.644 217.167,57.679 222.269,57.679L240.756,57.679C245.858,57.679 250,85.644 250,120.089L250,202.868C260.203,202.868 268.487,258.798 268.487,327.688L268.487,4821.19C268.487,4833.242 268.234,4844.898 267.761,4855.927C265.53,4907.938 258.418,4946.01 250,4946.01L213.025,4946.01C204.607,4946.01 197.495,4907.938 195.264,4855.927C194.828,4845.758 194.579,4835.057 194.542,4824.003ZM203.941,4996.639C222.13,5020.989 240.895,5020.989 259.084,4996.639L231.513,5409.239L203.941,4996.639Z" style="fill:rgb(61,0,255);"/>
            </g>
        </g>
        <path d="M358.598,386.878L356.789,385.07C357.429,385.682 358.131,386.193 358.874,386.602L358.598,386.878Z" style="fill:rgb(61,0,255);"/>
        <g transform="matrix(-0.138018,0.138018,0.749884,0.749884,86.219938,55.697881)">
            <path d="M213.025,402.434L213.038,402.434L213.025,402.439L213.025,402.434Z" style="fill:rgb(61,0,255);"/>
        </g>
    </g>
</svg>
